Coordinates
version=1
nRows=8
nColumns=40
inDegrees=yes

Units are S.I. units (second, meters, Newtons, ...)
Angles are in degrees.

endheader
time	pelvis_tilt	pelvis_list	pelvis_rotation	pelvis_tx	pelvis_ty	pelvis_tz	hip_flexion_r	hip_adduction_r	hip_rotation_r	knee_angle_r	knee_angle_r_beta	ankle_angle_r	subtalar_angle_r	mtp_angle_r	hip_flexion_l	hip_adduction_l	hip_rotation_l	knee_angle_l	knee_angle_l_beta	ankle_angle_l	subtalar_angle_l	mtp_angle_l	lumbar_extension	lumbar_bending	lumbar_rotation	arm_flex_r	arm_add_r	arm_rot_r	elbow_flex_r	pro_sup_r	wrist_flex_r	wrist_dev_r	arm_flex_l	arm_add_l	arm_rot_l	elbow_flex_l	pro_sup_l	wrist_flex_l	wrist_dev_l
      0.96000000	     -2.14435802	     -0.16609949	      4.55151153	     -0.11463113	      0.89238888	     -1.07496151	     29.57630389	     -3.74568296	    -15.00558707	    -48.59918700	     -0.84821583	      4.56311242	    -16.95197973	     20.96756261	      5.17290187	      1.13969492	     10.04619596	    -25.75163839	     -0.44945088	     12.26708005	      0.73965464	     -0.56790666	     -5.93948747	     -2.32853321	    -10.72839514	     -5.07841635	     -6.46478966	     -7.91355920	     19.73981855	     89.95437384	      0.00000000	      0.00000000	      7.36564029	     13.10726060	     24.29497256	     39.06193725	     89.95437384	      0.00000000	      0.00000000
      0.97000000	     -1.94261842	     -0.27209365	      4.92743787	     -0.10469707	      0.89231898	     -1.07524147	     29.46385536	     -3.60625170	    -15.47063310	    -45.37175704	     -0.79188655	      4.86627753	    -16.47074698	     20.74568484	      4.16529577	      1.45358202	     10.30788131	    -25.56182334	     -0.44613798	     12.20606261	     -0.01111055	     -1.18622394	     -6.20673799	     -2.09071988	    -11.15260441	     -5.32384817	     -6.39534172	     -7.93123943	     19.52822417	     89.95437384	      0.00000000	      0.00000000	      7.67138587	     13.33228251	     24.23140629	     40.18839041	     89.95437384	      0.00000000	      0.00000000
      0.98000000	     -2.13455967	     -0.19389228	      5.20548941	     -0.09501542	      0.89164085	     -1.07544277	     29.83155578	     -3.65509017	    -15.70023549	    -42.27368009	     -0.73781490	      4.91655870	    -15.94351490	     20.47081692	      3.56996558	      1.47008940	     10.40701230	    -25.33174591	     -0.44212237	     12.09803418	     -0.55418689	     -1.61261115	     -6.03552763	     -2.10376144	    -11.52950243	     -5.61114544	     -6.30009413	     -8.10010258	     19.46112094	     89.95437384	      0.00000000	      0.00000000	      7.95911943	     13.60410499	     24.09242431	     41.13663718	     89.95437384	      0.00000000	      0.00000000
      0.99000000	     -2.10778335	     -0.16360822	      5.48247883	     -0.08528906	      0.89127108	     -1.07555593	     29.81253281	     -3.61834670	    -15.94387415	    -38.94661583	     -0.67974668	      4.95918824	    -15.25981251	     20.04477293	      2.80007531	      1.63800291	     10.77604434	    -25.22037625	     -0.44017860	     11.90829186	     -1.19159624	     -2.29562174	     -6.14643092	     -2.03506829	    -11.76384778	     -5.94854514	     -6.24012078	     -8.18284345	     19.54061120	     89.95437384	      0.00000000	      0.00000000	      8.37273836	     13.77624578	     23.98343181	     42.09439907	     89.95437384	      0.00000000	      0.00000000
      1.00000000	     -2.23469737	     -0.14251352	      5.73996151	     -0.07535287	      0.89056658	     -1.07547644	     29.84120307	     -3.57014372	    -16.13846717	    -35.51679981	     -0.61988510	      5.29600543	    -14.30421589	     18.67620519	      2.20613519	      1.91598971	     11.45891832	    -25.11893253	     -0.43840808	     11.26475605	     -2.47902091	     -4.84355079	     -6.02706179	     -1.98524030	    -12.04213356	     -6.28811182	     -6.16347434	     -8.35027285	     19.64746203	     89.95437384	      0.00000000	      0.00000000	      8.65641955	     13.96223028	     23.90235364	     43.02473411	     89.95437384	      0.00000000	      0.00000000
      1.01000000	     -2.63919679	      0.14593117	      6.02274785	     -0.06593047	      0.88947097	     -1.07564984	     30.24200957	     -3.89058808	    -16.27755340	    -32.37863210	     -0.56511374	      5.91134023	    -13.48768189	     18.38660867	      1.94336801	      1.61845076	     11.26491642	    -25.08096736	     -0.43774546	     11.16427239	     -2.42338542	     -4.94276847	     -5.68796670	     -2.22678439	    -12.40641849	     -6.58242077	     -6.05854301	     -8.54270454	     19.73830890	     89.95437384	      0.00000000	      0.00000000	      8.93619312	     14.20630654	     23.75744074	     43.85894861	     89.95437384	      0.00000000	      0.00000000
      1.02000000	     -2.75683031	      0.19127934	      6.40951703	     -0.05595009	      0.88881898	     -1.07576331	     30.13567180	     -4.04547700	    -16.90665193	    -29.12699004	     -0.50836188	      6.59123015	    -12.31383587	     18.02304226	      1.34207916	      1.68026267	     11.05973979	    -24.97968849	     -0.43597781	     11.05209641	     -2.45042480	     -5.13645985	     -5.59947131	     -2.16985041	    -12.82247394	     -6.83075153	     -5.96966316	     -8.88311220	     19.78437638	     89.95437384	      0.00000000	      0.00000000	      9.21284639	     14.38304868	     23.64537685	     44.63203424	     89.95437384	      0.00000000	      0.00000000
      1.03000000	     -3.19412699	      0.64240409	      6.48553678	     -0.04608576	      0.88750131	     -1.07577273	     30.75684718	     -4.66350737	    -17.55841873	    -26.78625349	     -0.46750832	      7.05170750	    -11.91791239	     17.88447825	      1.03941248	      1.27712618	     11.37017645	    -24.92854171	     -0.43508513	     11.11518397	     -2.47337928	     -5.17106524	     -5.15333767	     -2.59102071	    -12.88078490	     -7.16964647	     -5.92040571	     -8.96400370	     19.88778775	     89.95437384	      0.00000000	      0.00000000	      9.54132189	     14.48730663	     23.60603659	     45.22026590	     89.95437384	      0.00000000	      0.00000000
